<svg xmlns="http://www.w3.org/2000/svg" width="53" height="32" viewBox="0 0 53 32">
  <metadata><?xpacket begin="﻿" id="W5M0MpCehiHzreSzNTczkc9d"?>
<x:xmpmeta xmlns:x="adobe:ns:meta/" x:xmptk="Adobe XMP Core 5.6-c140 79.160451, 2017/05/06-01:08:21        ">
   <rdf:RDF xmlns:rdf="http://www.w3.org/1999/02/22-rdf-syntax-ns#">
      <rdf:Description rdf:about=""/>
   </rdf:RDF>
</x:xmpmeta>
                                                                                                    
                                                                                                    
                                                                                                    
                                                                                                    
                                                                                                    
                                                                                                    
                                                                                                    
                                                                                                    
                                                                                                    
                                                                                                    
                                                                                                    
                                                                                                    
                                                                                                    
                                                                                                    
                                                                                                    
                                                                                                    
                                                                                                    
                                                                                                    
                                                                                                    
                                                                                                    
                           
<?xpacket end="w"?></metadata>
<defs>
    <style>
      .cls-1 {
        fill: #15489e;
        fill-rule: evenodd;
        opacity: 0.35;
      }
    </style>
  </defs>
  <path class="cls-1" d="M1265.15,1165.72a0.877,0.877,0,0,0,1.16-.47l4.08-9.3a3.672,3.672,0,0,1,3.62-2.17h12.37a6.545,6.545,0,0,1,5.47,3.2l5.27,7.05a4.054,4.054,0,0,0,3.38,2.19h2.65c3.79,0,5.3,2.11,5.88,3.56h-1.46a0.885,0.885,0,0,0,0,1.77h1.9l0.72,4.51a0.6,0.6,0,0,1-.06.55,0.965,0.965,0,0,1-.79.28h-2.72a6.225,6.225,0,1,0,0,1.77h2.72a2.659,2.659,0,0,0,2.19-.97,2.31,2.31,0,0,0,.39-2l-0.83-5.2c-0.59-2.92-2.97-6.05-7.94-6.05h-2.65a2.377,2.377,0,0,1-1.84-1.28,0.638,0.638,0,0,0-.08-0.14l-5.29-7.06a8.349,8.349,0,0,0-6.91-3.96h-12.37a5.413,5.413,0,0,0-5.22,3.2l-4.1,9.35A0.889,0.889,0,0,0,1265.15,1165.72Zm35.35,16.5a4.445,4.445,0,1,1,4.42-4.44A4.43,4.43,0,0,1,1300.5,1182.22Zm-10.26-17.78H1280.2v-8a0.885,0.885,0,1,0-1.77,0v8h-16.78a2.665,2.665,0,0,0-2.65,2.67V1176a2.657,2.657,0,0,0,2.65,2.66h0.46a0.885,0.885,0,0,0,0-1.77h-0.46a0.883,0.883,0,0,1-.88-0.89v-4.45h0.88a0.885,0.885,0,0,0,0-1.77h-0.88v-2.67a0.883,0.883,0,0,1,.88-0.89h16.94l1.62,8.18a0.9,0.9,0,0,0,.87.71,0.9,0.9,0,0,0,.87-1.06l-1.56-7.83h14.81a0.89,0.89,0,0,0,0-1.78h-2.98m2.51,13.34a0.89,0.89,0,0,0-.88-0.89h-17.26a6.225,6.225,0,1,0,0,1.77h17.26A0.881,0.881,0,0,0,1294.73,1177.78Zm-24.25,4.44a4.445,4.445,0,1,1,4.42-4.44A4.43,4.43,0,0,1,1270.48,1182.22Zm30.02-7.11a2.665,2.665,0,1,0,2.65,2.67A2.665,2.665,0,0,0,1300.5,1175.11Zm0,3.55a0.885,0.885,0,0,1,0-1.77A0.885,0.885,0,1,1,1300.5,1178.66ZM1283.73,1168a0.89,0.89,0,0,0,0,1.78h0.88a0.89,0.89,0,0,0,0-1.78h-0.88Zm-13.25,7.11a2.665,2.665,0,1,0,2.65,2.67A2.665,2.665,0,0,0,1270.48,1175.11Zm0,3.55a0.885,0.885,0,0,1,0-1.77A0.885,0.885,0,1,1,1270.48,1178.66Z" transform="translate(-1259 -1152)"/>
</svg>
