<svg xmlns="http://www.w3.org/2000/svg" width="44" height="43" viewBox="0 0 44 43">
  <metadata><?xpacket begin="﻿" id="W5M0MpCehiHzreSzNTczkc9d"?>
<x:xmpmeta xmlns:x="adobe:ns:meta/" x:xmptk="Adobe XMP Core 5.6-c140 79.160451, 2017/05/06-01:08:21        ">
   <rdf:RDF xmlns:rdf="http://www.w3.org/1999/02/22-rdf-syntax-ns#">
      <rdf:Description rdf:about=""/>
   </rdf:RDF>
</x:xmpmeta>
                                                                                                    
                                                                                                    
                                                                                                    
                                                                                                    
                                                                                                    
                                                                                                    
                                                                                                    
                                                                                                    
                                                                                                    
                                                                                                    
                                                                                                    
                                                                                                    
                                                                                                    
                                                                                                    
                                                                                                    
                                                                                                    
                                                                                                    
                                                                                                    
                                                                                                    
                                                                                                    
                           
<?xpacket end="w"?></metadata>
<defs>
    <style>
      .cls-1 {
        fill: #15489e;
        fill-rule: evenodd;
        opacity: 0.35;
      }
    </style>
  </defs>
  <path id="Forma_1" data-name="Forma 1" class="cls-1" d="M1302.82,1029.54a13.181,13.181,0,0,0-11.35-1.3c-0.26.09-.53,0.18-0.78,0.29,0.01-.29.02-0.57,0.02-0.85a13.67,13.67,0,0,0-4.69-10.55,4.568,4.568,0,0,0-6.03.01,13.68,13.68,0,0,0-4.69,10.54c0,0.28.01,0.56,0.02,0.85-0.26-.11-0.52-0.2-0.78-0.29a13.214,13.214,0,0,0-11.32,1.27,4.755,4.755,0,0,0-1.85,5.87,13.513,13.513,0,0,0,8.4,7.75q0.4,0.135.81,0.24c-0.18.22-.35,0.45-0.52,0.69a14.31,14.31,0,0,0-2.12,4.29,0.871,0.871,0,0,0,.58,1.09,0.858,0.858,0,0,0,1.07-.58,12.435,12.435,0,0,1,1.86-3.78,12.864,12.864,0,0,1,1.09-1.33,12.764,12.764,0,0,0,1.61.1,13.669,13.669,0,0,0,8.55-3.12,12.313,12.313,0,0,1-.43,9.6,0.147,0.147,0,0,1-.02.04c-0.01.01-.01,0.02-0.02,0.03a12.331,12.331,0,0,1-1.1,1.83,11.674,11.674,0,0,1-8.61,5.01,2.905,2.905,0,0,1-3.09-2.25l-0.01-.05a0.854,0.854,0,0,0-1.03-.66,0.888,0.888,0,0,0-.65,1.05l0.02,0.05a4.627,4.627,0,0,0,4.91,3.6,13.363,13.363,0,0,0,9.86-5.72c0.16-.24.32-0.47,0.47-0.71,0.15,0.24.31,0.47,0.48,0.71a13.346,13.346,0,0,0,9.85,5.72c0.14,0.01.28,0.02,0.42,0.02a4.641,4.641,0,0,0,4.5-3.62,13.706,13.706,0,0,0-2.31-11.32c-0.16-.24-0.34-0.47-0.51-0.69,0.27-.07.53-0.15,0.8-0.24a13.608,13.608,0,0,0,8.4-7.83A4.649,4.649,0,0,0,1302.82,1029.54Zm-23.18,11.14a11.359,11.359,0,0,1-7.22,1.29h-0.04a0.037,0.037,0,0,1-.03-0.01,12.6,12.6,0,0,1-2.04-.49,11.84,11.84,0,0,1-7.36-6.78,2.979,2.979,0,0,1,1.15-3.68,11.563,11.563,0,0,1,9.9-1.11,12.885,12.885,0,0,1,1.57.64,13.79,13.79,0,0,0,5.97,8.88A12.453,12.453,0,0,1,1279.64,1040.68Zm2.77-2.78a12.1,12.1,0,0,1-5.21-8.03c0-.01-0.01-0.02-0.01-0.03v-0.04a13.381,13.381,0,0,1-.17-2.12,12.006,12.006,0,0,1,4.1-9.23,2.85,2.85,0,0,1,3.77,0,11.954,11.954,0,0,1,4.1,9.23,13.61,13.61,0,0,1-.11,1.7A13.8,13.8,0,0,0,1282.41,1037.9Zm14.16,17.09a2.9,2.9,0,0,1-3.08,2.25,11.69,11.69,0,0,1-8.62-5.01,12.378,12.378,0,0,1-.9-1.45,14.061,14.061,0,0,0,.31-10.77,11.875,11.875,0,0,1,8.82,3.35,0.647,0.647,0,0,0,.08.09,12.836,12.836,0,0,1,1.37,1.63A12.027,12.027,0,0,1,1296.57,1054.99Zm6.48-20.39a11.9,11.9,0,0,1-7.35,6.87,13.451,13.451,0,0,1-1.63.42,13.438,13.438,0,0,0-9.97-3.62,12.841,12.841,0,0,1,.81-2.16,11.609,11.609,0,0,1,5.09-5.36,0.053,0.053,0,0,0,.03-0.02,0.037,0.037,0,0,0,.03-0.01,13.935,13.935,0,0,1,1.94-.82,11.546,11.546,0,0,1,9.93,1.14A2.868,2.868,0,0,1,1303.05,1034.6Zm-34.78,16.4a0.875,0.875,0,0,0-.88.85v0.1a0.871,0.871,0,0,0,.85.89h0.01a0.866,0.866,0,0,0,.86-0.86v-0.09A0.856,0.856,0,0,0,1268.27,1051Zm23.79-18.27a0.858,0.858,0,0,0-1.16-.38l-0.01.01a0.871,0.871,0,0,0-.36,1.17,0.848,0.848,0,0,0,.76.47,0.891,0.891,0,0,0,.39-0.09,0.01,0.01,0,0,0,.01-0.01A0.883,0.883,0,0,0,1292.06,1032.73Zm8.17-.56a9.634,9.634,0,0,0-6.08-.92,0.88,0.88,0,0,0-.71,1.01,0.86,0.86,0,0,0,.99.72,7.9,7.9,0,0,1,5.03.76,0.924,0.924,0,0,0,.39.09,0.864,0.864,0,0,0,.77-0.49A0.888,0.888,0,0,0,1300.23,1032.17Z" transform="translate(-1261 -1016)"/>
</svg>
