<svg xmlns="http://www.w3.org/2000/svg" width="23" height="23" viewBox="0 0 23 23">
  <metadata><?xpacket begin="﻿" id="W5M0MpCehiHzreSzNTczkc9d"?>
<x:xmpmeta xmlns:x="adobe:ns:meta/" x:xmptk="Adobe XMP Core 5.6-c140 79.160451, 2017/05/06-01:08:21        ">
   <rdf:RDF xmlns:rdf="http://www.w3.org/1999/02/22-rdf-syntax-ns#">
      <rdf:Description rdf:about=""/>
   </rdf:RDF>
</x:xmpmeta>
                                                                                                    
                                                                                                    
                                                                                                    
                                                                                                    
                                                                                                    
                                                                                                    
                                                                                                    
                                                                                                    
                                                                                                    
                                                                                                    
                                                                                                    
                                                                                                    
                                                                                                    
                                                                                                    
                                                                                                    
                                                                                                    
                                                                                                    
                                                                                                    
                                                                                                    
                                                                                                    
                           
<?xpacket end="w"?></metadata>
<defs>
    <style>
      .cls-1 {
        fill: #d1d1d1;
        fill-rule: evenodd;
      }
    </style>
  </defs>
  <path id="Forma_1" data-name="Forma 1" class="cls-1" d="M1511.5,30.8a2.3,2.3,0,1,0-2.3-2.3A2.3,2.3,0,0,0,1511.5,30.8Zm5.02-5.117V23.467h-0.28l-1.93.006,0.01,2.217ZM1511.5,17A11.5,11.5,0,1,0,1523,28.5,11.511,11.511,0,0,0,1511.5,17Zm6.54,10.154V32.51a2.534,2.534,0,0,1-2.53,2.527h-8.02a2.528,2.528,0,0,1-2.53-2.527V24.487a2.528,2.528,0,0,1,2.53-2.527h8.02a2.535,2.535,0,0,1,2.53,2.527v2.669Zm-2.96,1.342a3.58,3.58,0,0,1-7.16,0,3.532,3.532,0,0,1,.27-1.342h-1.96V32.51a1.26,1.26,0,0,0,1.26,1.252h8.02a1.251,1.251,0,0,0,1.25-1.252V27.156h-1.95A3.532,3.532,0,0,1,1515.08,28.5Z" transform="translate(-1500 -17)"/>
</svg>
