<svg xmlns="http://www.w3.org/2000/svg" width="23" height="23" viewBox="0 0 23 23">
  <metadata><?xpacket begin="﻿" id="W5M0MpCehiHzreSzNTczkc9d"?>
<x:xmpmeta xmlns:x="adobe:ns:meta/" x:xmptk="Adobe XMP Core 5.6-c140 79.160451, 2017/05/06-01:08:21        ">
   <rdf:RDF xmlns:rdf="http://www.w3.org/1999/02/22-rdf-syntax-ns#">
      <rdf:Description rdf:about=""/>
   </rdf:RDF>
</x:xmpmeta>
                                                                                                    
                                                                                                    
                                                                                                    
                                                                                                    
                                                                                                    
                                                                                                    
                                                                                                    
                                                                                                    
                                                                                                    
                                                                                                    
                                                                                                    
                                                                                                    
                                                                                                    
                                                                                                    
                                                                                                    
                                                                                                    
                                                                                                    
                                                                                                    
                                                                                                    
                                                                                                    
                           
<?xpacket end="w"?></metadata>
<defs>
    <style>
      .cls-1 {
        fill: #fff;
        fill-rule: evenodd;
      }
    </style>
  </defs>
  <path id="Forma_1" data-name="Forma 1" class="cls-1" d="M1598.5,17A11.5,11.5,0,1,1,1587,28.5,11.5,11.5,0,0,1,1598.5,17Zm-0.74,14.564a5.786,5.786,0,0,1-3.1-1.109,3.021,3.021,0,0,1-.33-0.269,0.931,0.931,0,0,1,1.05-1.52,1.729,1.729,0,0,1,.26.153,5.1,5.1,0,0,0,5.65.051,1.44,1.44,0,0,1,.55-0.284,0.848,0.848,0,0,1,.98.395,0.825,0.825,0,0,1-.06,1.1,4.521,4.521,0,0,1-1.64,1.061,7.683,7.683,0,0,1-1.86.418c0.09,0.1.14,0.156,0.2,0.216,0.86,0.868,1.73,1.731,2.59,2.6a0.863,0.863,0,0,1,.19,1.009,1.018,1.018,0,0,1-.96.6,0.935,0.935,0,0,1-.6-0.311c-0.65-.656-1.32-1.3-1.96-1.968-0.18-.2-0.27-0.158-0.44.011-0.65.675-1.32,1.34-1.99,2a0.826,0.826,0,0,1-1,.181,1,1,0,0,1-.59-0.939,0.952,0.952,0,0,1,.31-0.631c0.86-.854,1.71-1.709,2.56-2.565C1597.63,31.712,1597.68,31.652,1597.76,31.564Zm0.71-2.973a3.8,3.8,0,1,1,3.82-3.747A3.8,3.8,0,0,1,1598.47,28.591Zm1.88-3.8a1.855,1.855,0,1,0-1.84,1.861A1.843,1.843,0,0,0,1600.35,24.792Z" transform="translate(-1587 -17)"/>
</svg>
