<svg xmlns="http://www.w3.org/2000/svg" width="44" height="44" viewBox="0 0 44 44">
  <metadata><?xpacket begin="﻿" id="W5M0MpCehiHzreSzNTczkc9d"?>
<x:xmpmeta xmlns:x="adobe:ns:meta/" x:xmptk="Adobe XMP Core 5.6-c140 79.160451, 2017/05/06-01:08:21        ">
   <rdf:RDF xmlns:rdf="http://www.w3.org/1999/02/22-rdf-syntax-ns#">
      <rdf:Description rdf:about=""/>
   </rdf:RDF>
</x:xmpmeta>
                                                                                                    
                                                                                                    
                                                                                                    
                                                                                                    
                                                                                                    
                                                                                                    
                                                                                                    
                                                                                                    
                                                                                                    
                                                                                                    
                                                                                                    
                                                                                                    
                                                                                                    
                                                                                                    
                                                                                                    
                                                                                                    
                                                                                                    
                                                                                                    
                                                                                                    
                                                                                                    
                           
<?xpacket end="w"?></metadata>
<defs>
    <style>
      .cls-1 {
        fill: #15489e;
        fill-rule: evenodd;
        opacity: 0.35;
      }
    </style>
  </defs>
  <path id="Forma_1" data-name="Forma 1" class="cls-1" d="M715,1150.61a7.805,7.805,0,1,0-7.8-7.8A7.8,7.8,0,0,0,715,1150.61Zm0-14.19a6.385,6.385,0,1,1-6.386,6.39A6.387,6.387,0,0,1,715,1136.42Zm-1.419,7.8h2.838a2.835,2.835,0,1,0,0-5.67h-3.548a0.711,0.711,0,0,0-.709.71v7.8h1.419v-2.84Zm0-4.25h2.838a1.42,1.42,0,0,1,0,2.84h-2.838v-2.84Zm-7.1,28.38-8.514,7.81h1.419m35.477-2.75v-0.09a4.269,4.269,0,0,0-4.257-4.26,3.549,3.549,0,0,0-3.548-3.54,3.485,3.485,0,0,0-1.754.47,4.951,4.951,0,0,0-6.76.31v-2.2a0.705,0.705,0,0,0-.71-0.71h-0.709v-10.15a10.667,10.667,0,0,0,8.514-10.43h-1.419a9.224,9.224,0,0,1-18.448,0h-1.419a10.667,10.667,0,0,0,8.514,10.43v10.15h-0.709a0.705,0.705,0,0,0-.71.71v2.2a4.951,4.951,0,0,0-6.76-.31,3.485,3.485,0,0,0-1.754-.47,3.549,3.549,0,0,0-3.548,3.54,4.268,4.268,0,0,0-4.257,4.26v0.09a2.84,2.84,0,0,0,.709,5.59h38.316A2.84,2.84,0,0,0,734.867,1173.41Zm-20.577-19.96h1.419v9.94H714.29v-9.94ZM714,1175l0.29-.26h-1.419v-9.93h4.258v9.93h-1.42m-7.734,2.84H695.842a1.42,1.42,0,0,1-.064-2.84,0.463,0.463,0,0,0,.117.01,0.68,0.68,0,0,0,.564-0.25,0.717,0.717,0,0,0,.151-0.6,2.784,2.784,0,0,1-.058-0.58,2.838,2.838,0,0,1,2.838-2.84,3.075,3.075,0,0,1,.675.1,0.717,0.717,0,0,0,.861-0.52,0.7,0.7,0,0,0-.009-0.38,2.078,2.078,0,0,1,2.021-2.74,2.076,2.076,0,0,1,1.365.51,0.71,0.71,0,0,0,.984-0.06,3.454,3.454,0,0,1,2.617-1.16,3.542,3.542,0,0,1,3.548,3.54v4.97A3.555,3.555,0,0,0,707.975,1177.58Zm1.469,0a2.133,2.133,0,0,1,2.008-1.42h7.1a2.133,2.133,0,0,1,2.007,1.42H709.444Zm24.66-2.83c0.04,0,.079-0.01.054-0.01a1.42,1.42,0,0,1,0,2.84H722.024a3.553,3.553,0,0,0-3.476-2.84v-4.97a3.542,3.542,0,0,1,3.547-3.54,3.454,3.454,0,0,1,2.618,1.16,0.708,0.708,0,0,0,.983.06,2.08,2.08,0,0,1,1.366-.51,2.089,2.089,0,0,1,2.025,2.74,0.718,0.718,0,0,0,.471.89,0.814,0.814,0,0,0,.38.01,3.048,3.048,0,0,1,.672-0.1,2.838,2.838,0,0,1,2.838,2.84,2.784,2.784,0,0,1-.058.58,0.687,0.687,0,0,0,.151.59" transform="translate(-693 -1135)"/>
</svg>
