<svg xmlns="http://www.w3.org/2000/svg" width="40" height="35" viewBox="0 0 40 35">
  <metadata><?xpacket begin="﻿" id="W5M0MpCehiHzreSzNTczkc9d"?>
<x:xmpmeta xmlns:x="adobe:ns:meta/" x:xmptk="Adobe XMP Core 5.6-c140 79.160451, 2017/05/06-01:08:21        ">
   <rdf:RDF xmlns:rdf="http://www.w3.org/1999/02/22-rdf-syntax-ns#">
      <rdf:Description rdf:about=""/>
   </rdf:RDF>
</x:xmpmeta>
                                                                                                    
                                                                                                    
                                                                                                    
                                                                                                    
                                                                                                    
                                                                                                    
                                                                                                    
                                                                                                    
                                                                                                    
                                                                                                    
                                                                                                    
                                                                                                    
                                                                                                    
                                                                                                    
                                                                                                    
                                                                                                    
                                                                                                    
                                                                                                    
                                                                                                    
                                                                                                    
                           
<?xpacket end="w"?></metadata>
<defs>
    <style>
      .cls-1 {
        fill: #15489e;
        fill-rule: evenodd;
        opacity: 0.35;
      }
    </style>
  </defs>
  <path id="Forma_1" data-name="Forma 1" class="cls-1" d="M351.219,1024H339.344a0.781,0.781,0,0,0-.782.78v3.1a0.781,0.781,0,0,0,.782.78h1.562v5.8H326.062a0.781,0.781,0,0,0-.781.78v3.11a0.779,0.779,0,0,0,.781.77h1.563v5.81H312.781a0.781,0.781,0,0,0-.781.78v3.1a0.781,0.781,0,0,0,.781.78h1.094v8.63a0.781,0.781,0,0,0,.781.78h14.2a0.778,0.778,0,0,0,.485-0.17l22.363-17.62a0.777,0.777,0,0,0,.3-0.61v-15.82A0.781,0.781,0,0,0,351.219,1024Zm-24.375,13.57v-1.55h14.062v1.55H326.844Zm-13.282,10.47v-1.56h14.063v1.56H313.562Zm36.875-17.89h-3.2a0.78,0.78,0,1,0,0,1.56h3.2v8.51l-21.853,17.23H315.437v-4.84h3.206a0.772,0.772,0,0,0,.781-0.77,0.781,0.781,0,0,0-.781-0.78h-3.206v-1.47h12.969a0.781,0.781,0,0,0,.781-0.78v-9.69h12.5a0.779,0.779,0,0,0,.781-0.77v-9.69h7.968v1.49Zm0-3.05H340.125v-1.55h10.312v1.55Zm-29.531,23.96h-0.018a0.781,0.781,0,0,0-.781.78,0.772,0.772,0,0,0,.781.77h0.018a0.772,0.772,0,0,0,.781-0.77A0.781,0.781,0,0,0,320.906,1051.06Zm24.063-19.35h0.018a0.78,0.78,0,1,0,0-1.56h-0.018A0.78,0.78,0,1,0,344.969,1031.71Z" transform="translate(-312 -1024)"/>
</svg>
