<svg xmlns="http://www.w3.org/2000/svg" width="23" height="23" viewBox="0 0 23 23">
  <metadata><?xpacket begin="﻿" id="W5M0MpCehiHzreSzNTczkc9d"?>
<x:xmpmeta xmlns:x="adobe:ns:meta/" x:xmptk="Adobe XMP Core 5.6-c140 79.160451, 2017/05/06-01:08:21        ">
   <rdf:RDF xmlns:rdf="http://www.w3.org/1999/02/22-rdf-syntax-ns#">
      <rdf:Description rdf:about=""/>
   </rdf:RDF>
</x:xmpmeta>
                                                                                                    
                                                                                                    
                                                                                                    
                                                                                                    
                                                                                                    
                                                                                                    
                                                                                                    
                                                                                                    
                                                                                                    
                                                                                                    
                                                                                                    
                                                                                                    
                                                                                                    
                                                                                                    
                                                                                                    
                                                                                                    
                                                                                                    
                                                                                                    
                                                                                                    
                                                                                                    
                           
<?xpacket end="w"?></metadata>
<defs>
    <style>
      .cls-1 {
        fill: #d1d1d1;
        fill-rule: evenodd;
      }
    </style>
  </defs>
  <path id="Forma_1" data-name="Forma 1" class="cls-1" d="M1569.5,17A11.5,11.5,0,1,0,1581,28.5,11.5,11.5,0,0,0,1569.5,17Zm5.83,12.742a21.031,21.031,0,0,1,1.59,1.594,4.513,4.513,0,0,1,.56.817,0.581,0.581,0,0,1-.35.913h-2.36a1.821,1.821,0,0,1-1.5-.611c-0.33-.332-0.63-0.685-0.94-1.029a2.315,2.315,0,0,0-.43-0.377,0.488,0.488,0,0,0-.78.19,2.469,2.469,0,0,0-.25,1.1,0.622,0.622,0,0,1-.75.726,6.043,6.043,0,0,1-3.37-.725,7.468,7.468,0,0,1-2.27-2.124,28.608,28.608,0,0,1-2.99-5.324c-0.18-.419-0.05-0.644.42-0.653,0.77-.015,1.53-0.013,2.3,0a0.671,0.671,0,0,1,.64.479,14.474,14.474,0,0,0,1.57,2.9,2.414,2.414,0,0,0,.59.649,0.359,0.359,0,0,0,.61-0.179,1.825,1.825,0,0,0,.13-0.608,9.48,9.48,0,0,0-.03-2.13,0.9,0.9,0,0,0-.76-0.813c-0.23-.042-0.19-0.126-0.08-0.254a0.835,0.835,0,0,1,.72-0.36h2.66a0.629,0.629,0,0,1,.57.693v2.958a0.888,0.888,0,0,0,.38.756,0.516,0.516,0,0,0,.53-0.26,9.221,9.221,0,0,0,1.5-2.3c0.18-.365.34-0.742,0.49-1.121a0.567,0.567,0,0,1,.6-0.413l2.56,0a1.409,1.409,0,0,1,.23.013,0.448,0.448,0,0,1,.42.682,6.369,6.369,0,0,1-1.02,1.767c-0.43.592-.89,1.164-1.31,1.758A0.8,0.8,0,0,0,1575.33,29.742Z" transform="translate(-1558 -17)"/>
</svg>
